<?xml version="1.0" encoding="utf-8"?>
<!-- Generator: Adobe Illustrator 22.0.0, SVG Export Plug-In . SVG Version: 6.00 Build 0)  -->
<svg version="1.1" id="Layer_1" xmlns="http://www.w3.org/2000/svg" xmlns:xlink="http://www.w3.org/1999/xlink" x="0px" y="0px"
	 viewBox="0 0 140.3 124.9" style="enable-background:new 0 0 140.3 124.9;" xml:space="preserve">
<style type="text/css">
	.st0{fill:#58595B;}
	.st1{fill:#204199;}
</style>
<g>
	<g>
		<g>
			<path class="st0" d="M87.1,33.5l-16-9.6c-0.6-0.3-1.2-0.3-1.8,0l-16.1,9.9c-0.5,0.3-0.8,0.8-0.8,1.4v4.7v7.7v5
				c0,0.6,0.3,1.1,0.8,1.4l16,9.6c0.3,0.2,0.6,0.2,0.9,0.2c0.3,0,0.6-0.1,0.9-0.3l9.1-5.6l0.2-0.1l6.8-4.2c0.5-0.3,0.8-0.8,0.8-1.4
				v-4.7v-7.7v-5C87.9,34.3,87.6,33.8,87.1,33.5 M84.5,39.6v7.7v3.8l-14.4,9l-14.3-8.7v-4.1v-7.7v-3.8l14.4-9l14.3,8.7V39.6z"/>
		</g>
		<g>
			<g>
				<g>
					<path class="st0" d="M40.3,93c-0.8,0-1.4,0.5-1.4,1.4c0,0.8,0.6,1.3,1.3,1.3c0.7,0,1.4-0.4,1.4-1.4C41.7,93.6,41.1,93,40.3,93z
						 M40.3,95.2c-0.3,0-0.5-0.3-0.5-0.8c0-0.4,0.1-0.8,0.5-0.8c0.4,0,0.5,0.4,0.5,0.8C40.8,94.8,40.6,95.2,40.3,95.2z"/>
					<path class="st0" d="M45,93.6L45,93.6l-0.1-0.5h-0.7c0,0.2,0,0.5,0,0.9v1.7h0.8v-1.3c0-0.1,0-0.1,0-0.2
						c0.1-0.2,0.3-0.4,0.6-0.4c0.1,0,0.2,0,0.2,0V93c-0.1,0-0.1,0-0.2,0C45.4,93,45.1,93.2,45,93.6z"/>
					<polygon class="st0" points="51.4,92.8 52.3,92.8 52.3,95.7 53.2,95.7 53.2,92.8 54.1,92.8 54.1,92.1 51.4,92.1 					"/>
					<path class="st0" d="M57.8,93c-0.9,0-1.3,0.7-1.3,1.4c0,0.8,0.5,1.3,1.4,1.3c0.4,0,0.7-0.1,0.9-0.2L58.7,95
						c-0.2,0.1-0.4,0.1-0.7,0.1c-0.4,0-0.7-0.2-0.7-0.5H59c0-0.1,0-0.2,0-0.3C59,93.7,58.7,93,57.8,93z M57.3,94.1
						c0-0.2,0.2-0.5,0.5-0.5c0.4,0,0.5,0.3,0.5,0.5H57.3z"/>
					<path class="st0" d="M63,93.6c0.2,0,0.4,0,0.5,0.1l0.1-0.6c-0.2-0.1-0.4-0.1-0.6-0.1c-1,0-1.5,0.6-1.5,1.4
						c0,0.8,0.5,1.3,1.4,1.3c0.3,0,0.6-0.1,0.7-0.1L63.4,95c-0.1,0.1-0.3,0.1-0.5,0.1c-0.4,0-0.7-0.3-0.7-0.7
						C62.3,93.9,62.5,93.6,63,93.6z"/>
					<path class="st0" d="M67.7,93c-0.1,0-0.3,0-0.4,0.1c-0.1,0.1-0.2,0.2-0.3,0.3h0v-1.5h-0.8v3.8h0.8v-1.5c0-0.1,0-0.1,0-0.2
						c0.1-0.1,0.2-0.3,0.4-0.3c0.3,0,0.4,0.2,0.4,0.6v1.4h0.8v-1.5C68.6,93.4,68.2,93,67.7,93z"/>
					<path class="st0" d="M72.9,93c-0.4,0-0.7,0.2-0.8,0.4h0l0-0.4h-0.7c0,0.2,0,0.5,0,0.8v1.8h0.8v-1.5c0-0.1,0-0.1,0-0.2
						c0.1-0.1,0.2-0.3,0.4-0.3c0.3,0,0.4,0.2,0.4,0.6v1.4h0.8v-1.5C73.8,93.4,73.4,93,72.9,93z"/>
					<path class="st0" d="M77.8,93c-0.8,0-1.4,0.5-1.4,1.4c0,0.8,0.6,1.3,1.3,1.3c0.7,0,1.4-0.4,1.4-1.4C79.2,93.6,78.6,93,77.8,93z
						 M77.8,95.2c-0.3,0-0.5-0.3-0.5-0.8c0-0.4,0.1-0.8,0.5-0.8c0.4,0,0.5,0.4,0.5,0.8C78.3,94.8,78.1,95.2,77.8,95.2z"/>
					<rect x="81.8" y="91.9" class="st0" width="0.8" height="3.8"/>
					<path class="st0" d="M86.6,93c-0.8,0-1.4,0.5-1.4,1.4c0,0.8,0.6,1.3,1.3,1.3c0.7,0,1.4-0.4,1.4-1.4C87.9,93.6,87.4,93,86.6,93z
						 M86.6,95.2c-0.3,0-0.5-0.3-0.5-0.8c0-0.4,0.1-0.8,0.5-0.8c0.4,0,0.5,0.4,0.5,0.8C87.1,94.8,86.9,95.2,86.6,95.2z"/>
					<path class="st0" d="M92.3,93.4L92.3,93.4C92.2,93.2,92,93,91.6,93c-0.6,0-1.2,0.5-1.2,1.4c0,0.7,0.5,1.3,1.1,1.3
						c0.3,0,0.5-0.1,0.7-0.3h0v0.2c0,0.5-0.3,0.7-0.7,0.7c-0.3,0-0.6-0.1-0.8-0.2l-0.2,0.6c0.2,0.1,0.6,0.2,0.9,0.2
						c0.4,0,0.8-0.1,1.1-0.3c0.3-0.3,0.4-0.7,0.4-1.2v-1.4c0-0.4,0-0.6,0-0.8h-0.7L92.3,93.4z M92.2,94.5c0,0.1,0,0.2,0,0.2
						c-0.1,0.2-0.2,0.3-0.4,0.3c-0.3,0-0.5-0.3-0.5-0.7c0-0.5,0.2-0.7,0.5-0.7c0.2,0,0.4,0.1,0.4,0.4c0,0,0,0.1,0,0.1V94.5z"/>
					<path class="st0" d="M96.2,92c-0.3,0-0.4,0.2-0.4,0.4c0,0.2,0.2,0.4,0.4,0.4c0.3,0,0.4-0.2,0.4-0.4C96.6,92.1,96.5,92,96.2,92z
						"/>
					<rect x="95.8" y="93.1" class="st0" width="0.8" height="2.6"/>
					<path class="st0" d="M100.6,93c-0.9,0-1.3,0.7-1.3,1.4c0,0.8,0.5,1.3,1.4,1.3c0.4,0,0.7-0.1,0.9-0.2l-0.1-0.5
						c-0.2,0.1-0.4,0.1-0.7,0.1c-0.4,0-0.7-0.2-0.7-0.5h1.7c0-0.1,0-0.2,0-0.3C101.7,93.7,101.4,93,100.6,93z M100,94.1
						c0-0.2,0.2-0.5,0.5-0.5c0.4,0,0.5,0.3,0.5,0.5H100z"/>
					<path class="st0" d="M105.4,94.1c-0.3-0.1-0.4-0.2-0.4-0.3c0-0.1,0.1-0.2,0.3-0.2c0.2,0,0.4,0.1,0.6,0.1l0.1-0.6
						c-0.2-0.1-0.4-0.2-0.7-0.2c-0.6,0-1.1,0.4-1.1,0.9c0,0.3,0.2,0.6,0.7,0.8c0.3,0.1,0.4,0.2,0.4,0.3c0,0.1-0.1,0.2-0.3,0.2
						c-0.2,0-0.5-0.1-0.7-0.2l-0.1,0.6c0.2,0.1,0.5,0.2,0.8,0.2c0.7,0,1.1-0.4,1.1-0.8C106.1,94.5,105.9,94.3,105.4,94.1z"/>
					<polygon class="st0" points="34.2,95.7 35,95.7 35,94.2 36.3,94.2 36.3,93.6 35,93.6 35,92.8 36.4,92.8 36.4,92.1 34.2,92.1 
											"/>
				</g>
			</g>
		</g>
		<path class="st1" d="M70.2,31l-10.9,6.8v2.9v5.9v3.1l10.9,6.6l3.6-2.3c-0.7-0.4-1.2-1-1.5-1.7c-0.3-1-0.1-2,0.5-2.7
			c-0.3-0.7-0.7-1.3-1.3-1.8c-0.4,0.1-0.9,0.2-1.4,0.2c-2.4,0-4.4-1.9-4.4-4.3c0-2.4,2-4.3,4.4-4.3c2.4,0,4.4,1.9,4.4,4.3
			c0,1.2-0.5,2.2-1.2,3c0.2,0.5,0.5,1.2,1,1.9c1.5-0.4,3.2,0.4,3.7,2c0.1,0.3,0.1,0.5,0.1,0.8l3-1.8v-2.9v-5.9v-3.1L70.2,31z"/>
	</g>
	<g>
		<path class="st1" d="M48.4,86.7L48.4,86.7c-0.2,0-0.3,0.1-0.5,0.2c-0.3,0.2-0.7,0.3-1.2,0.3c-0.1,0-0.5-0.1-1.1-0.5l-0.7-0.5
			l-0.9-0.6c-0.1-0.1-0.2-0.1-0.4-0.2c0.5-0.2,0.9-0.3,1.3-0.6c1.1-0.6,1.9-1.5,2.6-2.6c0.6-1.1,0.9-2.4,0.9-3.8
			c0-2.1-0.7-3.9-2-5.2c-1.3-1.3-3.1-2-5.2-2c-2.4,0-4.3,0.8-5.6,2.4c-1.1,1.3-1.7,3-1.7,4.9c0,2.2,0.9,4.1,2.5,5.6
			c-0.2,0.2-0.5,0.5-0.7,0.8c-0.3,0.5-0.5,1.1-0.6,1.7c0,0.2,0,0.4,0.2,0.6c0.1,0.1,0.2,0.2,0.5,0.2c0.2,0,0.6-0.1,0.7-0.7
			c0.1-0.4,0.2-0.6,0.5-0.9c0.2-0.2,0.5-0.3,0.8-0.3c0.2,0,0.7,0.1,1.9,0.7l1.6,0.9c0.2,0.1,0.7,0.4,1.6,0.9c1.1,0.6,2.1,1,2.9,1
			c0.6,0,1.3-0.1,1.9-0.4c0.6-0.2,1.2-0.6,1.2-1.2C49,86.9,48.7,86.7,48.4,86.7z M40.6,72.7c1.5,0,2.8,0.6,3.9,1.9
			c1.1,1.3,1.6,2.9,1.6,4.8c0,1.5-0.4,2.7-1.2,3.6c-0.8,0.9-1.8,1.3-3.1,1.3c-1.3,0-2.4-0.5-3.4-1.4c-1.4-1.3-2.1-3-2.1-5.2
			c0-1.5,0.4-2.7,1.2-3.7C38.3,73.1,39.3,72.7,40.6,72.7z"/>
		<path class="st1" d="M63.6,72c0-0.4-0.3-0.6-0.6-0.6c0,0-0.1,0-0.5,0c-0.1,0-0.4,0-1.3,0c-0.3,0-0.6,0-0.8-0.1
			c-0.3,0-0.5-0.1-0.7-0.1c-0.4,0-0.6,0.3-0.6,0.6c0,0.3,0.2,0.6,0.7,0.6c0.4,0,0.7,0.2,0.8,0.4c0.2,0.3,0.3,0.8,0.3,1.5v5
			c0,1.6-0.3,2.7-1,3.5c-0.7,0.7-1.7,1.1-3.1,1.1c-1.5,0-2.7-0.4-3.3-1.3c-0.5-0.6-0.7-1.7-0.7-3.3v-4.8l0-0.6c0-0.7,0.1-1,0.1-1.1
			c0.1-0.1,0.2-0.2,0.4-0.3C54,72.6,54,72.1,54,72c0-0.3-0.2-0.6-0.7-0.6c-0.1,0-0.3,0-0.5,0c-0.3,0-0.5,0-0.5,0h-0.7l-0.7,0
			c-0.1,0-0.3,0-0.6,0c-0.3,0-0.5,0-0.7,0c-0.8,0-0.8,0.6-0.8,0.7c0,0.3,0.2,0.6,0.6,0.6c0.4,0.1,0.7,0.2,0.8,0.3
			c0.1,0.1,0.2,0.4,0.2,1.2l0,0.5v4.9c0,1.4,0.2,2.6,0.7,3.5c0.4,0.8,1.2,1.4,2.1,1.9c0.9,0.4,2,0.7,3.1,0.7c1,0,1.9-0.2,2.8-0.6
			c0.9-0.4,1.6-0.9,2.1-1.6c0.8-1,1.1-2.5,1.1-4.3v-4.8c0-1,0.1-1.3,0.1-1.5c0.1-0.2,0.2-0.3,0.5-0.4C63.5,72.4,63.6,72.1,63.6,72z"
			/>
		<path class="st1" d="M77.2,84.3c-0.7-0.1-0.9-0.3-1-0.3c-0.1-0.1-0.3-0.3-0.6-1.3l-0.2-0.5l-4.1-10.6C71,71.1,70.7,71,70.6,71
			c-0.2,0-0.5,0.1-0.7,0.5l-4.9,11l-0.3,0.6c-0.1,0.3-0.3,0.5-0.5,0.8c-0.2,0.3-0.3,0.3-0.3,0.3c0,0,0,0,0,0l-0.4,0.1
			c-0.3,0.1-0.5,0.3-0.5,0.6c0,0.3,0.2,0.6,0.7,0.6c0,0,0.1,0,0.6-0.1c0.1,0,0.2,0,0.4,0c0.4,0,0.7,0,1,0l0.9,0.1c0.2,0,0.3,0,0.3,0
			c0.2,0,0.4-0.1,0.6-0.2c0.1-0.1,0.2-0.3,0.1-0.4c0-0.2-0.1-0.5-0.6-0.6c-0.5-0.1-0.7-0.2-0.7-0.2c-0.1,0-0.1-0.2-0.1-0.3
			c0-0.1,0.1-0.5,0.4-1.3l0.6-1.4c0.2-0.4,0.3-0.5,0.3-0.6c0.1,0,0.2,0,0.6,0h3.5c0.2,0,0.3,0,0.4,0c0,0.1,0.1,0.2,0.2,0.4l0.5,1.3
			c0.5,1.3,0.6,1.7,0.6,1.9c0,0.2,0,0.2-0.1,0.2l-0.3,0.1c-0.4,0.1-0.6,0.4-0.6,0.6c0,0.3,0.2,0.6,0.7,0.6c0.1,0,0.2,0,0.4,0
			c0.1,0,0.5-0.1,1.6-0.1c0.8,0,1.4,0,1.7,0c0.2,0,0.3,0,0.4,0c0.5,0,0.7-0.3,0.7-0.6C77.9,84.9,77.8,84.4,77.2,84.3z M68.4,78.7
			l1.6-3.6l1.4,3.6l0,0.1h-2.9L68.4,78.7z"/>
		<path class="st1" d="M91.2,84.3l-0.3,0c-0.5,0-1.2-0.6-1.9-1.7l-0.3-0.5l-2.4-3.5c1.4-0.9,2.2-2,2.2-3.5c0-1.2-0.4-2.2-1.3-2.8
			c-0.8-0.6-2-0.9-3.6-0.9c-0.4,0-0.9,0-1.4,0c-0.7,0-1.2,0.1-1.5,0.1c-0.3,0-0.6,0-0.8,0c-0.5,0-0.7,0-0.7,0
			c-0.6,0-0.8,0.3-0.8,0.6c0,0.1,0,0.5,0.7,0.7l0.4,0.1c0.2,0,0.7,0.1,0.7,1.3l0,1v6.9c0,1.3-0.1,1.8-0.2,2
			c-0.1,0.2-0.3,0.4-0.7,0.4c-0.4,0.1-0.6,0.4-0.6,0.6c0,0.3,0.2,0.6,0.7,0.6c0.1,0,0.3,0,0.6,0c0.3,0,0.5,0,0.8,0l0.5,0l0.9,0
			c0.5,0,0.9,0,1.2,0c0.3,0,0.5,0,0.6,0c0.3,0,0.5-0.1,0.6-0.2c0.1-0.1,0.2-0.3,0.1-0.4c0-0.2-0.1-0.6-0.7-0.6
			c-0.5,0-0.8-0.2-1.1-0.3c-0.1-0.1-0.2-0.2-0.2-0.3c0-0.1-0.1-0.3-0.1-1l0-0.4c0,0,0-2.4,0-2.9h1.2c0.2,0,0.3,0.1,0.4,0.2l0.1,0.2
			l2.4,3.6c0.5,0.8,1,1.3,1.5,1.7c0.5,0.4,1.1,0.6,1.8,0.6c0.4,0,0.7,0,1.1-0.1c0.2,0,0.7-0.2,0.7-0.7c0-0.2,0-0.3-0.1-0.4
			C91.6,84.3,91.4,84.3,91.2,84.3z M82.6,77.5v-3.9l0-0.3c0-0.3,0.1-0.3,0.1-0.3c0,0,0.1-0.1,0.5-0.1c0.9,0,1.6,0.3,2.2,0.8
			c0.6,0.5,0.8,1.2,0.8,2c0,0.7-0.2,1.2-0.6,1.6c-0.4,0.4-0.9,0.6-1.7,0.6h-1.1c-0.1,0-0.2,0-0.2,0C82.6,77.7,82.6,77.7,82.6,77.5z"
			/>
		<path class="st1" d="M105.2,84.3l-0.4-0.1c-0.5-0.1-1-0.4-1.5-0.9l-5-5.2c0,0,0-0.1-0.1-0.1c0,0,3.3-3,3.3-3
			c2.1-1.9,2.8-2.3,3.1-2.3c0.2,0,0.8-0.2,0.8-0.7c0-0.3-0.2-0.6-0.7-0.6c0,0-0.1,0-0.4,0c-0.1,0-0.2,0-0.7,0l-0.7,0l-0.9,0
			c-0.3,0-0.6,0-0.9,0c-0.1,0-0.2,0-0.3,0c-0.5,0-0.7,0.3-0.7,0.6c0,0.3,0.1,0.6,0.8,0.7c0.3,0,0.3,0.1,0.3,0.1c0,0.1,0,0.3-0.8,1
			l-3.8,3.4v-3.1c0-0.8,0.1-1,0.1-1.1c0,0,0.1-0.2,0.5-0.4c0.4-0.2,0.5-0.5,0.5-0.6c0-0.4-0.3-0.6-0.7-0.6c0,0-0.1,0-0.5,0
			c-0.1,0-0.3,0-0.5,0l-1.1,0c-0.7,0-1.2,0-1.5-0.1c-0.2,0-0.3,0-0.4,0c-0.5,0-0.7,0.3-0.7,0.6c0,0.1,0,0.5,0.6,0.6l0.5,0.1
			c0.3,0.1,0.5,0.2,0.6,0.3c0.1,0.1,0.2,0.4,0.2,1.2v8.2c0,1-0.1,1.4-0.2,1.5c-0.1,0.2-0.2,0.3-0.5,0.3c-0.5,0-0.7,0.3-0.7,0.6
			c0,0.3,0.2,0.7,0.8,0.7c0,0,0,0,0,0c0,0,0.1,0,0.6,0c0.1,0,0.2,0,0.5,0l0.7,0l0.8,0c0.5,0,0.9,0,1.1,0l0.5,0l0,0
			c0.2,0,0.4-0.1,0.5-0.2c0.1-0.1,0.2-0.2,0.2-0.5c0-0.1-0.1-0.5-0.7-0.6C97.2,84.2,97,84,96.9,84c0-0.1-0.2-0.3-0.2-1.2l0-3l5,5.1
			l0.2,0.2c0.2,0.3,0.5,0.4,0.9,0.4c0.1,0,0.3,0,0.5,0c0.2,0,0.4,0,0.8,0c0.5,0,0.7,0,0.8,0c0.1,0,0.2,0,0.3,0l0.1,0
			c0.5,0,0.7-0.3,0.7-0.7C105.8,84.7,105.7,84.4,105.2,84.3z"/>
	</g>
	<g>
		<g>
			<path class="st0" d="M79.9,65.8l-0.3,1.1h-1l1.3-4.2h1.2l1.3,4.2h-1l-0.3-1.1H79.9z M81,65.1l-0.3-0.9c-0.1-0.2-0.1-0.6-0.2-0.8
				h0c-0.1,0.2-0.1,0.6-0.2,0.8L80,65.1H81z"/>
			<path class="st0" d="M83.6,62.7h2.5v0.8h-1.6v1h1.5v0.8h-1.5v1.7h-0.9V62.7z"/>
			<path class="st0" d="M87.5,62.8c0.3,0,0.8-0.1,1.3-0.1c0.6,0,1.1,0.1,1.4,0.3c0.3,0.2,0.4,0.5,0.4,0.9c0,0.5-0.4,0.9-0.7,1v0
				c0.3,0.1,0.5,0.4,0.6,0.8c0.1,0.5,0.3,1,0.3,1.2h-1c-0.1-0.1-0.2-0.5-0.3-1c-0.1-0.5-0.3-0.7-0.7-0.7h-0.3v1.6h-0.9V62.8z
				 M88.4,64.6h0.4c0.5,0,0.8-0.2,0.8-0.6c0-0.4-0.3-0.6-0.7-0.6c-0.2,0-0.4,0-0.4,0V64.6z"/>
			<path class="st0" d="M92.7,62.7v4.2h-0.9v-4.2H92.7z"/>
			<path class="st0" d="M97.2,66.8c-0.2,0.1-0.6,0.2-1.1,0.2c-1.4,0-2.2-0.9-2.2-2.1c0-1.4,1-2.2,2.3-2.2c0.5,0,0.9,0.1,1,0.2
				l-0.2,0.7c-0.2-0.1-0.5-0.2-0.8-0.2c-0.7,0-1.3,0.5-1.3,1.4c0,0.8,0.5,1.4,1.3,1.4c0.3,0,0.6-0.1,0.8-0.1L97.2,66.8z"/>
			<path class="st0" d="M99.4,65.8l-0.3,1.1h-1l1.3-4.2h1.2l1.3,4.2h-1l-0.3-1.1H99.4z M100.5,65.1l-0.3-0.9
				c-0.1-0.2-0.1-0.6-0.2-0.8h0c-0.1,0.2-0.1,0.6-0.2,0.8l-0.2,0.9H100.5z"/>
		</g>
	</g>
</g>
</svg>
